# xmcd
#
# Track frame offsets: 
#        150
#        12987
#        33510
#        44747
#        58696
#        73413
#        88026
#        103053
#        125941
#        143586
#        153324
#        171176
#        184779
#
# Disc length: 2735 seconds
#
# Revision: 0
# Processed by: cddbd v1.5.2PL0 Copyright (c) Steve Scherf et al.
# Submitted via: ExactAudioCopy v0.99pb5
#
DISCID=c00aad0d
DTITLE=Apelsin - Kauge Hüüd
DYEAR=2012
DGENRE=Country Rock
TTITLE0=Asi
TTITLE1=Kauge hüüd
TTITLE2=Kingseppmeistri lauluke
TTITLE3=Kulbiviskaja rokk
TTITLE4=Andante
TTITLE5=Jõulust jaanipäevani
TTITLE6=Shake it
TTITLE7=Pihtimus
TTITLE8=Stress ja sokid
TTITLE9=My Guitar and Banjo
TTITLE10=Keemia
TTITLE11=Jakety Sax
TTITLE12=Kauge hüüd (instr.)
EXTD=
EXTT0=
EXTT1=
EXTT2=
EXTT3=
EXTT4=
EXTT5=
EXTT6=
EXTT7=
EXTT8=
EXTT9=
EXTT10=
EXTT11=
EXTT12=
PLAYORDER=
